<?xml version="1.0" standalone="no"?><!DOCTYPE svg PUBLIC "-//W3C//DTD SVG 1.1//EN" "http://www.w3.org/Graphics/SVG/1.1/DTD/svg11.dtd"><svg t="1657961388255" class="icon" viewBox="0 0 1024 1024" version="1.1" xmlns="http://www.w3.org/2000/svg" p-id="29335" xmlns:xlink="http://www.w3.org/1999/xlink" width="16" height="16"><defs><style type="text/css">@font-face { font-family: feedback-iconfont; src: url("//at.alicdn.com/t/font_1031158_u69w8yhxdu.woff2?t=1630033759944") format("woff2"), url("//at.alicdn.com/t/font_1031158_u69w8yhxdu.woff?t=1630033759944") format("woff"), url("//at.alicdn.com/t/font_1031158_u69w8yhxdu.ttf?t=1630033759944") format("truetype"); }
</style></defs><path d="M725.333333 256c23.466667 0 42.666667 19.2 42.666667 42.666667v426.666666c0 23.466667-19.2 42.666667-42.666667 42.666667h-170.666666c-23.466667 0-42.666667-19.2-42.666667-42.666667V298.666667c0-23.466667 19.2-42.666667 42.666667-42.666667h170.666666z m64-74.666667H234.666667c-29.866667 0-53.333333 23.466667-53.333334 53.333334v554.666666c0 29.866667 23.466667 53.333333 53.333334 53.333334h554.666666c29.866667 0 53.333333-23.466667 53.333334-53.333334V234.666667c0-29.866667-23.466667-53.333333-53.333334-53.333334z m0-64c64 0 117.333333 53.333333 117.333334 117.333334v554.666666c0 64-53.333333 117.333333-117.333334 117.333334H234.666667c-64 0-117.333333-53.333333-117.333334-117.333334V234.666667C117.333333 170.666667 170.666667 117.333333 234.666667 117.333333h554.666666z" p-id="29336" fill="#82529d"></path></svg>